<svg width="22pt" height="22pt" class="tc-image-full-screen-button tc-image-button" viewBox="0 0 128 128"><path d="M0 8a8 8 0 018-8h32a8 8 0 110 16H16v24a8 8 0 11-16 0V8zM128 120a8 8 0 01-8 8H88a8 8 0 110-16h24V88a8 8 0 1116 0v32zM8 128a8 8 0 01-8-8V88a8 8 0 1116 0v24h24a8 8 0 110 16H8zM120 0a8 8 0 018 8v32a8 8 0 11-16 0V16H88a8 8 0 110-16h32zM64 76.314l-16.97 16.97a7.999 7.999 0 01-11.314 0c-3.118-3.118-3.124-8.19 0-11.313L52.686 65l-16.97-16.97a7.999 7.999 0 010-11.314c3.118-3.118 8.19-3.124 11.313 0L64 53.686l16.97-16.97a7.999 7.999 0 0111.314 0c3.118 3.118 3.124 8.19 0 11.313L75.314 65l16.97 16.97a7.999 7.999 0 010 11.314c-3.118 3.118-8.19 3.124-11.313 0L64 76.314z"/></svg>