<svg width="22pt" height="22pt" class="tc-image-button" viewBox="0 0 1024 1024"><path fill-rule="evenodd" d="M512 981.333333C252.8 981.333333 42.666667 771.2 42.666667 512S252.8 42.666667 512 42.666667s469.333333 210.133333 469.333333 469.333333-210.133333 469.333333-469.333333 469.333333z m0-85.333333a384 384 0 1 0 0-768 384 384 0 0 0 0 768z m0-166.5553285a50.889344 50.889344 0 1 1 0-107.778688 50.889344 50.889344 0 0 1 0 107.778688z m0-166.5553275a50.889344 50.889344 0 1 1 0-107.778689 50.889344 50.889344 0 0 1 0 107.778689z m0-166.5553285a50.889344 50.889344 0 1 1 0-107.778688 50.889344 50.889344 0 0 1 0 107.778688z"/></svg>